<svg width="213" height="213" viewBox="0 0 213 213" fill="none" xmlns="http://www.w3.org/2000/svg">
<g filter="url(#filter0_i_4_65)">
<path d="M108.456 213V63.5H209V82.3H128.785V127.1H198.785V145.4H128.785V213H108.456Z" fill="white"/>
<path d="M80.115 213V145.4H10.1145V127.1H80.115V82.3H0V63.5H100.444V213H80.115Z" fill="white"/>
<path d="M103.248 47.8C115.084 47.8 124.679 38.2189 124.679 26.4C124.679 14.5811 115.084 5 103.248 5C91.4123 5 81.8174 14.5811 81.8174 26.4C81.8174 38.2189 91.4123 47.8 103.248 47.8Z" fill="white"/>
</g>
<g filter="url(#filter1_i_4_65)">
<path d="M112.456 208V58.5H213V77.3H132.785V122.1H202.785V140.4H132.785V208H112.456Z" fill="#34517D" fill-opacity="0.7"/>
<path d="M84.115 208V140.4H14.1145V122.1H84.115V77.3H4V58.5H104.444V208H84.115Z" fill="#34517D" fill-opacity="0.7"/>
<path d="M107.248 42.8C119.084 42.8 128.679 33.2189 128.679 21.4C128.679 9.58111 119.084 0 107.248 0C95.4123 0 85.8174 9.58111 85.8174 21.4C85.8174 33.2189 95.4123 42.8 107.248 42.8Z" fill="#34517D" fill-opacity="0.7"/>
</g>
<defs>
<filter id="filter0_i_4_65" x="0" y="5" width="209" height="212" filterUnits="userSpaceOnUse" color-interpolation-filters="sRGB">
<feFlood flood-opacity="0" result="BackgroundImageFix"/>
<feBlend mode="normal" in="SourceGraphic" in2="BackgroundImageFix" result="shape"/>
<feColorMatrix in="SourceAlpha" type="matrix" values="0 0 0 0 0 0 0 0 0 0 0 0 0 0 0 0 0 0 127 0" result="hardAlpha"/>
<feOffset dy="4"/>
<feGaussianBlur stdDeviation="2"/>
<feComposite in2="hardAlpha" operator="arithmetic" k2="-1" k3="1"/>
<feColorMatrix type="matrix" values="0 0 0 0 0 0 0 0 0 0 0 0 0 0 0 0 0 0 0.25 0"/>
<feBlend mode="normal" in2="shape" result="effect1_innerShadow_4_65"/>
</filter>
<filter id="filter1_i_4_65" x="4" y="0" width="209" height="212" filterUnits="userSpaceOnUse" color-interpolation-filters="sRGB">
<feFlood flood-opacity="0" result="BackgroundImageFix"/>
<feBlend mode="normal" in="SourceGraphic" in2="BackgroundImageFix" result="shape"/>
<feColorMatrix in="SourceAlpha" type="matrix" values="0 0 0 0 0 0 0 0 0 0 0 0 0 0 0 0 0 0 127 0" result="hardAlpha"/>
<feOffset dy="4"/>
<feGaussianBlur stdDeviation="2"/>
<feComposite in2="hardAlpha" operator="arithmetic" k2="-1" k3="1"/>
<feColorMatrix type="matrix" values="0 0 0 0 0 0 0 0 0 0 0 0 0 0 0 0 0 0 0.25 0"/>
<feBlend mode="normal" in2="shape" result="effect1_innerShadow_4_65"/>
</filter>
</defs>
</svg>
